<svg xmlns="http://www.w3.org/2000/svg" width="66" height="66" viewBox="0 0 66 66">
    <g fill="none" fill-rule="evenodd" transform="translate(1 1)">
        <rect width="64" height="64" stroke="#1565D8" opacity=".2" rx="16"/>
        <g>
            <path d="M0 0L40 0 40 40 0 40z" transform="translate(12 12)"/>
            <path fill="#1565D8" d="M11.506 9.6l1.39-2.78c.127-.235.333-.568.595-.908.338-.438.68-.768 1.063-.955.206-.1.421-.157.646-.157h9.6c.225 0 .44.057.646.157.384.187.725.517 1.063.955.262.34.468.673.607.93L28.494 9.6H31.2c3.093 0 5.6 2.507 5.6 5.6v14.4c0 3.093-2.507 5.6-5.6 5.6H8.8c-3.093 0-5.6-2.507-5.6-5.6V15.2c0-3.093 2.507-5.6 5.6-5.6h2.706zm-1.906 8c.884 0 1.6-.716 1.6-1.6 0-.884-.716-1.6-1.6-1.6-.884 0-1.6.716-1.6 1.6 0 .884.716 1.6 1.6 1.6zM20 28.8c3.976 0 7.2-3.224 7.2-7.2s-3.224-7.2-7.2-7.2-7.2 3.224-7.2 7.2 3.224 7.2 7.2 7.2z" transform="translate(12 12)"/>
            <path fill="#1565D8" d="M20 27.2c3.093 0 5.6-2.507 5.6-5.6 0-3.093-2.507-5.6-5.6-5.6-3.093 0-5.6 2.507-5.6 5.6 0 3.093 2.507 5.6 5.6 5.6z" opacity=".3" transform="translate(12 12)"/>
        </g>
    </g>
</svg>
