<svg xmlns="http://www.w3.org/2000/svg" width="66" height="66" viewBox="0 0 66 66">
    <g fill="none" fill-rule="evenodd" transform="translate(1 1)">
        <rect width="64" height="64" stroke="#1565D8" opacity=".2" rx="16"/>
        <g>
            <path d="M0 0L40 0 40 40 0 40z" transform="translate(12 12)"/>
            <path d="M0 0L40 0 40 40 0 40z" transform="translate(12 12)"/>
            <path fill="#1565D8" d="M13.534 14.314c1.737-2.49 2.82-5.348 3.256-8.583.041-.308.258-.564.554-.657 2.992-.933 4.692.55 4.664 3.934-.005.657-.035 1.24-.1 2.134-.142 1.994-.13 2.539.09 2.905.213.352.904.472 2.538.16.516-.1 1.033-.211 1.606-.346.252-.06 2.074-.508 2.54-.609.887-.193 1.524-.275 2.085-.24 1.518.093 2.323 1.08 2.462 2.968.245 3.327-.512 10.008-1.267 12.47-.773 2.514-2.12 3.463-5.351 3.52-2.078.037-5.275.037-9.604 0-1.105-.025-2.106-.241-2.997-.645.25-.522.39-1.107.39-1.725V16.8c0-.94-.324-1.804-.866-2.486z" transform="translate(12 12)"/>
            <path fill="#1565D8" d="M8.8 14.4c-1.325 0-2.4 1.075-2.4 2.4v12.8c0 1.325 1.075 2.4 2.4 2.4h1.6c1.325 0 2.4-1.075 2.4-2.4V16.8c0-1.325-1.075-2.4-2.4-2.4H8.8z" opacity=".3" transform="translate(12 12)"/>
        </g>
    </g>
</svg>
