<svg xmlns="http://www.w3.org/2000/svg" width="66" height="66" viewBox="0 0 66 66">
    <g fill="none" fill-rule="evenodd" transform="translate(1 1)">
        <rect width="64" height="64" stroke="#1565D8" opacity=".2" rx="16"/>
        <g>
            <path d="M0 0L40 0 40 40 0 40z" transform="translate(12 12)"/>
            <path fill="#1565D8" d="M20 36.8c-9.278 0-16.8-7.522-16.8-16.8S10.722 3.2 20 3.2 36.8 10.722 36.8 20 29.278 36.8 20 36.8zm-6.4-25.6c1.325 0 2.4-1.075 2.4-2.4s-1.075-2.4-2.4-2.4-2.4 1.075-2.4 2.4 1.075 2.4 2.4 2.4zm0 11.2c2.21 0 4-1.79 4-4s-1.79-4-4-4-4 1.79-4 4 1.79 4 4 4zm12-6.4c1.767 0 3.2-1.433 3.2-3.2 0-1.767-1.433-3.2-3.2-3.2-1.767 0-3.2 1.433-3.2 3.2 0 1.767 1.433 3.2 3.2 3.2zM12 30.4c1.325 0 2.4-1.075 2.4-2.4s-1.075-2.4-2.4-2.4-2.4 1.075-2.4 2.4 1.075 2.4 2.4 2.4zm10.4 0c1.767 0 3.2-1.433 3.2-3.2 0-1.767-1.433-3.2-3.2-3.2-1.767 0-3.2 1.433-3.2 3.2 0 1.767 1.433 3.2 3.2 3.2zm8-6.4c.884 0 1.6-.716 1.6-1.6 0-.884-.716-1.6-1.6-1.6-.884 0-1.6.716-1.6 1.6 0 .884.716 1.6 1.6 1.6z" transform="translate(12 12)"/>
            <path fill="#1565D8" d="M13.6 20.8c-1.325 0-2.4-1.075-2.4-2.4s1.075-2.4 2.4-2.4 2.4 1.075 2.4 2.4-1.075 2.4-2.4 2.4zm12-6.4c-.884 0-1.6-.716-1.6-1.6 0-.884.716-1.6 1.6-1.6.884 0 1.6.716 1.6 1.6 0 .884-.716 1.6-1.6 1.6zm-3.2 14.4c-.884 0-1.6-.716-1.6-1.6 0-.884.716-1.6 1.6-1.6.884 0 1.6.716 1.6 1.6 0 .884-.716 1.6-1.6 1.6z" opacity=".3" transform="translate(12 12)"/>
        </g>
    </g>
</svg>
