<svg xmlns="http://www.w3.org/2000/svg" width="66" height="66" viewBox="0 0 66 66">
    <g fill="none" fill-rule="evenodd" transform="translate(1 1)">
        <rect width="64" height="64" stroke="#1565D8" opacity=".2" rx="16"/>
        <g>
            <path d="M0 0L40 0 40 40 0 40z" transform="translate(12 12)"/>
            <path fill="#1565D8" d="M12.8 12c0-3.976 3.224-7.2 7.2-7.2s7.2 3.224 7.2 7.2c0 2.77-1.578 5.244-3.988 6.446l.164 1.314c4.153 1.423 7.024 5.35 7.024 9.84v1.6c0 .442-.358.8-.8.8H10.4c-.442 0-.8-.358-.8-.8v-1.6c0-4.49 2.87-8.417 7.024-9.84l.164-1.314C14.378 17.244 12.8 14.77 12.8 12z" transform="translate(12 12)"/>
            <path fill="#1565D8" d="M5.625 9.187c0 .662-.537 1.199-1.2 1.199-.662 0-1.198-.537-1.198-1.199V5.984c0-1.54 1.25-2.79 2.79-2.79h3.205c.662 0 1.199.537 1.199 1.2 0 .661-.537 1.198-1.2 1.198H6.019c-.217 0-.393.175-.393.392v3.203zM30.805 5.6c-.661 0-1.198-.536-1.198-1.198 0-.662.537-1.199 1.199-1.199h3.204c1.541 0 2.79 1.249 2.79 2.79v3.203c0 .662-.536 1.198-1.198 1.198-.662 0-1.2-.536-1.2-1.198V5.992c0-.217-.175-.393-.392-.393h-3.204zm3.588 25.203c0-.662.537-1.199 1.2-1.199.662 0 1.198.537 1.198 1.199v3.203c0 1.54-1.25 2.79-2.79 2.79h-3.205c-.662 0-1.199-.537-1.199-1.199s.537-1.199 1.2-1.199H34c.217 0 .393-.175.393-.392v-3.203zM9.196 34.397c.662 0 1.199.537 1.199 1.199s-.537 1.199-1.2 1.199H5.993c-1.541 0-2.791-1.25-2.791-2.79v-3.203c0-.662.537-1.199 1.199-1.199s1.199.537 1.199 1.199v3.203c0 .217.176.392.393.392h3.204z" opacity=".3" transform="translate(12 12)"/>
        </g>
    </g>
</svg>
