<svg xmlns="http://www.w3.org/2000/svg" width="66" height="66" viewBox="0 0 66 66">
    <g fill="none" fill-rule="evenodd" transform="translate(1 1)">
        <rect width="64" height="64" stroke="#1565D8" opacity=".2" rx="16"/>
        <g>
            <path d="M0 0L40 0 40 40 0 40z" transform="translate(12 12)"/>
            <path fill="#1565D8" d="M11.626 36.8H10.4c-3.093 0-5.6-2.506-5.6-5.6V4c0-.556.555-.943 1.078-.75l6.234 2.31 6.001-2.306c.182-.07.383-.071.566-.003l6.16 2.29 6.08-2.289c.522-.197 1.081.19 1.081.749v24.8H10.784l1.509 2.93c.346.671.507 1.297.507 1.903 0 .593-.154 1.196-.485 1.834l-.689 1.333zm7.574-24V12c0-.441-.358-.8-.8-.8-.442 0-.8.359-.8.8v.8h-.778c-1.325 0-2.4 1.075-2.4 2.4v.802c0 1.325 1.075 2.4 2.4 2.4H20c.442 0 .8.358.8.8V20c0 .442-.358.8-.8.8h-3.98c-.033-.4-.362-.72-.773-.733-.442-.014-.81.333-.824.775l-.023.733c-.013.452.349.825.8.825h2.4v.8c0 .442.358.8.8.8.442 0 .8-.358.8-.8v-.8h.8c1.325 0 2.4-1.075 2.4-2.4v-.8c0-1.325-1.075-2.4-2.4-2.4h-3.178c-.442 0-.8-.357-.8-.8v-.8c0-.442.358-.8.8-.8h4.002c.087.348.401.605.776.605.442 0 .8-.358.8-.8v-.605c0-.442-.358-.8-.8-.8h-2.4z" transform="translate(12 12)"/>
            <path fill="#1565D8" d="M33.71 30.4c2.174.041 3.923 1.816 3.923 4 0 2.208-1.79 4-4 4H12.816c1.307-1.278 2.003-2.592 2-3.972-.002-1.38-.703-2.714-2.016-4.028h20.91z" opacity=".3" transform="translate(12 12)"/>
        </g>
    </g>
</svg>
