<svg xmlns="http://www.w3.org/2000/svg" width="66" height="66" viewBox="0 0 66 66">
    <g fill="none" fill-rule="evenodd" transform="translate(1 1)">
        <rect width="64" height="64" stroke="#1565D8" opacity=".2" rx="16"/>
        <g>
            <path d="M0 0L40 0 40 40 0 40z" transform="translate(12 12)"/>
            <path fill="#1565D8" d="M34.945 5.695c1.086 5.83-1.349 12.014-6.239 15.882L15.75 31.827c-.319.252-.775.226-1.062-.061l-6.454-6.454c-.287-.287-.313-.743-.061-1.062l10.25-12.956c3.868-4.89 10.052-7.325 15.882-6.239.325.061.58.315.64.64zm-11.373 5.077c-1.563 1.562-1.563 4.094 0 5.656 1.562 1.563 4.094 1.563 5.656 0 1.563-1.562 1.563-4.094 0-5.656-1.562-1.563-4.094-1.563-5.656 0zm4.525 4.525c-.937.937-2.457.937-3.394 0-.937-.937-.937-2.457 0-3.394.937-.937 2.457-.937 3.394 0 .937.937.937 2.457 0 3.394z" transform="translate(12 12)"/>
            <path fill="#1565D8" d="M12.8 32.25l-.71.711c-.852.852-2.232.852-3.084 0L7.04 30.994c-.852-.852-.852-2.232 0-3.083l.71-.711 5.051 5.05zM8.596 20.8l-3.429-2.28c-.464-.308-.493-.979-.057-1.326l6.19-4.918c1.334-1.06 3.109-1.353 4.698-.806L8.596 20.8zM28.507 24c.583 1.62.287 3.443-.804 4.798L22.8 34.89c-.348.436-1.017.407-1.325-.058l-2.275-3.43L28.507 24z" opacity=".3" transform="translate(12 12)"/>
        </g>
    </g>
</svg>
