<svg xmlns="http://www.w3.org/2000/svg" viewBox="0 0 1440 320"><path fill="hsla(208,60%,43%,1)" fill-opacity="1" d="M0,160L24,170.7C48,181,96,203,144,192C192,181,240,139,288,122.7C336,107,384,117,432,106.7C480,96,528,64,576,58.7C624,53,672,75,720,112C768,149,816,203,864,202.7C912,203,960,149,1008,154.7C1056,160,1104,224,1152,250.7C1200,277,1248,267,1296,245.3C1344,224,1392,192,1416,176L1440,160L1440,320L1416,320C1392,320,1344,320,1296,320C1248,320,1200,320,1152,320C1104,320,1056,320,1008,320C960,320,912,320,864,320C816,320,768,320,720,320C672,320,624,320,576,320C528,320,480,320,432,320C384,320,336,320,288,320C240,320,192,320,144,320C96,320,48,320,24,320L0,320Z"></path></svg>